HIERARCHY
ROOT Hips
{
   OFFSET 0.00000 0.00000 0.00000
   CHANNELS 6 Xposition Yposition Zposition Zrotation Xrotation Yrotation
   JOINT Spine
   {
      OFFSET 0.000000 11.890501 0.000000
      CHANNELS 3 Zrotation Xrotation Yrotation
      JOINT Spine1
      {
         OFFSET -0.000000 25.657401 0.127660
         CHANNELS 3 Zrotation Xrotation Yrotation
         JOINT HEad
         {
            OFFSET 0.000000 8.734161 0.011340
            CHANNELS 3 Zrotation Xrotation Yrotation
            End Site
            {
               OFFSET -0.290000 12.774200 2.513950
            }
         }
         JOINT LeftShoulder1
         {
            OFFSET 8.990000 -0.362250 -0.220000
            CHANNELS 3 Zrotation Xrotation Yrotation
            JOINT LeftArm
            {
               OFFSET 10.282700 -0.003380 0.322120
               CHANNELS 3 Zrotation Xrotation Yrotation
               JOINT LeftForeArm
               {
                  OFFSET 32.766900 0.099140 -1.424340
                  CHANNELS 3 Zrotation Xrotation Yrotation
                  JOINT LeftHand
                  {
                     OFFSET 27.564301 0.085360 1.022160
                     CHANNELS 3 Zrotation Xrotation Yrotation
                     End Site
                     {
                        OFFSET 16.744301 -0.600000 1.502910
                     }
                  }
               }
            }
         }
         JOINT RightShoulder
         {
            OFFSET -8.990000 -0.362250 -0.220000
            CHANNELS 3 Zrotation Xrotation Yrotation
            JOINT RightArm
            {
               OFFSET -10.282700 -0.003380 0.322120
               CHANNELS 3 Zrotation Xrotation Yrotation
               JOINT RightForeArm
               {
                  OFFSET -32.897098 0.099140 -1.424340
                  CHANNELS 3 Zrotation Xrotation Yrotation
                  JOINT RightHand
                  {
                     OFFSET -27.492101 0.085360 1.022160
                     CHANNELS 3 Zrotation Xrotation Yrotation
                     End Site
                     {
                        OFFSET -16.631201 -0.600000 1.502910
                     }
                  }
               }
            }
         }
      }
   }
   JOINT LeftUpLeg
   {
      OFFSET 8.945800 -8.667070 0.101650
      CHANNELS 3 Zrotation Xrotation Yrotation
      JOINT LeftLeg
      {
         OFFSET 0.000000 -44.422697 1.372700
         CHANNELS 3 Zrotation Xrotation Yrotation
         JOINT LeftFoot
         {
            OFFSET -0.253550 -42.092399 -1.460590
            CHANNELS 3 Zrotation Xrotation Yrotation
            JOINT LeftToes
            {
               OFFSET -0.040000 -4.415090 8.499099
               CHANNELS 3 Zrotation Xrotation Yrotation
               End Site
               {
                  OFFSET 0.080000 -0.047450 9.779790
               }
            }
         }
      }
   }
   JOINT RightUpLeg
   {
      OFFSET -8.945800 -8.667070 0.101650
      CHANNELS 3 Zrotation Xrotation Yrotation
      JOINT RightLeg
      {
         OFFSET 0.000000 -44.422697 1.372700
         CHANNELS 3 Zrotation Xrotation Yrotation
         JOINT RightFoot
         {
            OFFSET 0.253550 -42.092399 -1.460590
            CHANNELS 3 Zrotation Xrotation Yrotation
            JOINT RightToes
            {
               OFFSET 0.040000 -4.415090 8.499099
               CHANNELS 3 Zrotation Xrotation Yrotation
               End Site
               {
                  OFFSET -0.080000 -0.137450 9.779790
               }
            }
         }
      }
   }
}
MOTION
Frames: 6
Frame Time: 0.016670
35.200529 86.433972 -4.048515 11.933271 17.650223 152.717716 -7.535031 30.894223 -20.645597 -0.523912 -3.669683 -0.978385 6.607541 20.695652 14.335252 9.753153 9.288780 55.575361 -93.671864 -13.928489 -65.896422 -71.465362 41.475736 -65.220506 39.665207 53.404679 -46.326311 13.110951 33.374869 67.047254 21.240684 -69.716670 -25.835202 46.821182 11.788045 55.729183 55.593993 1.501698 32.408291 11.321948 -17.003261 -20.620944 -23.071921 24.444390 70.602409 13.111884 -8.234767 -6.402939 -15.066981 -11.025570 -75.218954 -36.191683 8.954106 -2.828813 43.497834 52.512711 -3.227385 -31.489190 -6.672437 -5.249403 31.019120 -33.885880 48.133217
35.106911 86.442917 -3.919052 10.124342 19.702058 160.189533 -4.706610 33.105275 -22.899302 -0.547172 -3.468939 -0.872737 5.216367 18.412274 14.193243 9.527624 9.234887 52.743711 -98.871858 -22.042581 -69.032456 -73.149735 47.250057 -63.256793 32.654451 33.181011 -30.894984 9.152711 29.394668 75.990089 29.508377 -77.133415 -18.358401 50.832334 12.619015 57.443933 52.963114 2.028360 34.511010 6.601130 -17.228794 -24.709729 -21.909626 24.868420 68.173334 15.039008 -8.157753 -6.312896 -16.805037 -9.714499 -75.870663 -36.981212 12.159752 -4.532201 39.303251 54.269972 5.894348 -30.372424 -6.613845 -5.017285 24.320333 -38.870357 29.856987
34.981703 86.480025 -3.816821 7.598287 21.865843 168.975861 -0.979028 34.684722 -25.631407 -0.738477 -2.970697 -0.780722 3.065657 16.135468 13.917088 9.215438 9.125891 48.614445 -104.912839 -30.109065 -73.985012 -74.446077 52.317538 -61.978489 29.198434 30.062504 -32.454334 10.736600 27.174763 69.506887 63.130687 -73.124121 20.063814 54.273281 13.454190 58.934021 51.768592 3.613839 35.360538 1.038950 -16.614421 -28.906771 -20.294020 25.396045 64.995049 16.902495 -8.046803 -6.196297 -18.327165 -8.384828 -76.638301 -37.531944 16.094151 -5.899208 34.900211 55.469045 13.669351 -25.934435 -6.791706 -4.739674 19.532816 -39.955794 22.427428
34.856536 86.519602 -3.750780 4.219001 23.647046 178.989178 3.162158 35.228179 -28.986186 -0.998111 -2.653976 -0.842908 0.183345 14.021938 13.606387 10.502914 10.812222 53.173344 -110.873395 -28.421778 -75.661530 -74.054461 56.164376 -61.584100 27.837754 12.655073 -25.207595 11.323503 24.504108 62.603957 81.780423 -65.786483 43.859728 57.492762 14.400182 60.857429 50.473127 4.455797 36.212970 -4.834562 -14.860815 -32.890673 -18.127278 25.408363 60.949883 18.523178 -8.055902 -6.133857 -19.653267 -6.993206 -77.497949 -37.749072 20.599208 -7.449439 32.796574 56.927806 16.090788 -22.166950 -6.695666 -4.403953 13.579056 -43.765229 13.421809
34.755651 86.536254 -3.722680 0.990275 24.595180 187.841704 6.916868 34.693785 -30.287798 -1.303229 -2.642354 -0.881572 -3.446796 12.465915 13.330957 9.795718 10.234986 45.511022 -114.982164 -33.284048 -80.233693 -73.602897 58.970583 -60.989928 25.931976 9.829582 -27.264211 4.131255 15.430217 64.066840 104.626094 -64.373426 62.583213 60.238403 16.177612 63.289127 49.711134 6.074341 36.104578 -9.446061 -12.695594 -34.437718 -15.684944 25.235611 56.118381 19.891633 -8.010569 -6.097344 -20.723663 -5.455164 -78.404909 -37.329583 24.237471 -7.716115 33.876656 56.456411 13.847094 -18.831550 -6.702339 -4.171757 10.571311 -45.326563 10.207294
34.699654 86.527136 -3.727264 -1.804209 25.070595 195.238348 10.477863 33.707564 -29.649650 -1.461893 -2.160674 -1.045861 -6.865107 12.177085 11.586739 9.232638 9.493828 37.105590 -117.198833 -35.218795 -83.620551 -72.899032 60.528891 -60.229100 26.285431 2.281432 -23.716932 3.488871 14.726351 54.869194 109.524672 -54.054472 72.822999 62.411946 19.057742 65.465806 49.340074 6.602173 34.735617 -12.887537 -10.451748 -33.840497 -12.976434 25.208075 50.574450 20.972905 -7.892151 -6.009185 -21.540952 -3.768173 -79.326609 -36.725142 27.133616 -6.727016 37.019137 54.741364 8.578520 -16.441650 -6.538613 -3.813023 8.389345 -46.463854 7.728341
